<svg id="visual" viewBox="0 0 960 540" width="960" height="540" xmlns="http://www.w3.org/2000/svg" xmlns:xlink="http://www.w3.org/1999/xlink" version="1.1"><rect x="0" y="0" width="960" height="540" fill="#4c3a00"></rect><defs><linearGradient id="grad1_0" x1="43.8%" y1="0%" x2="100%" y2="100%"><stop offset="14.444444444444446%" stop-color="#b9ae71" stop-opacity="1"></stop><stop offset="85.55555555555554%" stop-color="#b9ae71" stop-opacity="1"></stop></linearGradient></defs><defs><linearGradient id="grad1_1" x1="43.8%" y1="0%" x2="100%" y2="100%"><stop offset="14.444444444444446%" stop-color="#b9ae71" stop-opacity="1"></stop><stop offset="85.55555555555554%" stop-color="#817138" stop-opacity="1"></stop></linearGradient></defs><defs><linearGradient id="grad1_2" x1="43.8%" y1="0%" x2="100%" y2="100%"><stop offset="14.444444444444446%" stop-color="#4c3a00" stop-opacity="1"></stop><stop offset="85.55555555555554%" stop-color="#817138" stop-opacity="1"></stop></linearGradient></defs><defs><linearGradient id="grad2_0" x1="0%" y1="0%" x2="56.3%" y2="100%"><stop offset="14.444444444444446%" stop-color="#b9ae71" stop-opacity="1"></stop><stop offset="85.55555555555554%" stop-color="#b9ae71" stop-opacity="1"></stop></linearGradient></defs><defs><linearGradient id="grad2_1" x1="0%" y1="0%" x2="56.3%" y2="100%"><stop offset="14.444444444444446%" stop-color="#817138" stop-opacity="1"></stop><stop offset="85.55555555555554%" stop-color="#b9ae71" stop-opacity="1"></stop></linearGradient></defs><defs><linearGradient id="grad2_2" x1="0%" y1="0%" x2="56.3%" y2="100%"><stop offset="14.444444444444446%" stop-color="#817138" stop-opacity="1"></stop><stop offset="85.55555555555554%" stop-color="#4c3a00" stop-opacity="1"></stop></linearGradient></defs><g transform="translate(960, 0)"><path d="M0 459C-36.9 415.1 -73.8 371.3 -114.3 351.9C-154.9 332.5 -199.1 337.6 -234.5 322.8C-269.9 308 -296.5 273.2 -332.5 241.6C-368.5 210 -413.9 181.6 -436.5 141.8C-459.2 102.1 -459.1 51.1 -459 0L0 0Z" fill="#66551d"></path><path d="M0 306C-24.6 276.8 -49.2 247.5 -76.2 234.6C-103.3 221.7 -132.7 225.1 -156.4 215.2C-180 205.3 -197.7 182.1 -221.7 161.1C-245.7 140 -275.9 121 -291 94.6C-306.1 68.1 -306.1 34 -306 0L0 0Z" fill="#9d8f54"></path><path d="M0 153C-12.3 138.4 -24.6 123.8 -38.1 117.3C-51.6 110.8 -66.4 112.5 -78.2 107.6C-90 102.7 -98.8 91.1 -110.8 80.5C-122.8 70 -138 60.5 -145.5 47.3C-153.1 34 -153 17 -153 0L0 0Z" fill="#b9ae71"></path></g><g transform="translate(0, 540)"><path d="M0 -459C47.5 -455.1 95.1 -451.1 141.8 -436.5C188.6 -421.9 234.6 -396.6 260.4 -358.4C286.2 -320.2 291.7 -269 320.4 -232.8C349.1 -196.6 401 -175.4 428 -139.1C454.9 -102.8 457 -51.4 459 0L0 0Z" fill="#66551d"></path><path d="M0 -306C31.7 -303.4 63.4 -300.8 94.6 -291C125.7 -281.3 156.4 -264.4 173.6 -238.9C190.8 -213.4 194.4 -179.3 213.6 -155.2C232.7 -131 267.3 -116.9 285.3 -92.7C303.3 -68.5 304.6 -34.3 306 0L0 0Z" fill="#9d8f54"></path><path d="M0 -153C15.8 -151.7 31.7 -150.4 47.3 -145.5C62.9 -140.6 78.2 -132.2 86.8 -119.5C95.4 -106.7 97.2 -89.7 106.8 -77.6C116.4 -65.5 133.7 -58.5 142.7 -46.4C151.6 -34.3 152.3 -17.1 153 0L0 0Z" fill="#b9ae71"></path></g></svg>